<?xml version="1.0" encoding="UTF-8"?>
<svg id="Capa_1" xmlns="http://www.w3.org/2000/svg" version="1.1" viewBox="0 0 1007.46 661.39">
  <!-- Generator: Adobe Illustrator 29.0.1, SVG Export Plug-In . SVG Version: 2.1.0 Build 192)  -->
  <defs>
    <style>
      .st0 {
        fill: #560072;
      }

      .st1 {
        fill: #dcabff;
      }
    </style>
  </defs>
  <path class="st1" d="M851.39,387.32c-.08-.74-.19-1.48-.33-2.22-1.46-10.57-3.26-21.07-4.76-31.63-.05-.33-.09-.66-.11-.82-.15-1.23-.3-2.46-.44-3.7-.27-2.38-.51-4.77-.72-7.16-.48-5.42-.99-10.82-1.69-16.21-1.63-12.52-4.86-23.78-12.69-33.91-6.98-9.03-16.41-15.13-26.99-19.16-19.05-7.25-43.05-5.19-62.05,1.26-7.37,2.51-15.17,5.92-21.39,10.99-10.63-8-24.09-10.49-37.48-8.25-6.86,1.15-13.77,3.93-19.53,7.86-.52.35-1,.76-1.51,1.12-2.64-1.54-5.5-2.68-8.53-3.28-6.37-1.25-12.46-.93-18.85-.71-12.94.44-27.38-.08-37.76,7.43-9.72-6.11-21.5-9.33-33.79-10.51-8.51-.7-16.8-.6-24.87,1.03-1.15-3.11-2.5-6.12-4.22-8.88-9.25-14.77-26.32-22.27-43.48-19.97-7.77,1.04-15.31,3.46-21.8,8-1.35.94-2.66,1.98-3.97,3-2.36-.96-4.88-1.65-7.59-2.02-4.98-.67-9.42-.1-14.33.5-12.99,1.59-29.2,1.25-39,11.04-3.39,3.39-5.48,7.1-6.71,11.01-11.55-2.97-24.04-3.44-35.52-1.59,2.9-13.9.66-28.67-7.58-40.55-10.49-15.11-27.24-22.18-45.08-24.09-16.01-1.71-33.01,3.39-45.14,14.05-.97.85-1.79,1.78-2.64,2.7-3.62-3.3-7.47-6.21-11.37-8.45-11.92-6.83-27.21-9.32-40.67-5.97-15.14,3.76-27.81,16.76-35.91,29.54-16.56,26.13-10.37,59.2,2.84,85.27,1.32,2.6,2.77,5.11,4.28,7.58-14.18,5.03-24.79,18.55-24.15,34.02.13,3.31.53,6.93,1.63,10.12,1.92,5.58,3.89,8.7,7.57,13.2,3.07,3.75,7.21,6.58,11.65,8.63.19,1.44.47,2.84.86,4.18,1.49,5.12,4.48,10.68,8.69,14.07,1.7,1.37,3.41,2.89,5.31,4,1.93,1.13,4.14,1.88,6.21,2.71,2.74,1.1,5.96,1.33,8.81,1.53,5.46.38,11.47-1.51,16.18-4.13,1.23-.69,2.46-1.48,3.61-2.37,18.69,15.38,47.08,19.27,69.43,9.21,8.44-3.8,15.28-9.86,20.7-17.09,3.51,3.8,7.37,7.29,11.59,10.31,13.73,9.79,32.9,13.73,49.5,11.92,16.64-1.81,30.96-8.1,42.14-19.37,1.46.76,2.96,1.46,4.53,2.06,8.73,3.32,18.15,2.54,27.15,1.14,8.32-1.3,17.32-4.02,24.68-8.32,6.01,6.63,13.61,11.77,22.54,15.19,9.21,3.53,20.07,4.9,29.89,4.2,4.93-.35,9.66-1.08,14.19-2.71,2.97,1.87,6.31,3.14,9.84,3.64,5.4.76,10.78,1.23,16.2,1.71,9.9.87,20.31,2.71,29.57-.04.44.39.87.79,1.35,1.17,5.71,4.42,12.36,6.17,19.55,6.18,3.41,0,6.84-.23,10.25-.35,11.06-.38,24.25.74,34.56-3.61.52-.22,1-.49,1.49-.74,8.5,3.16,18.7,2.48,28.05,2.16,14.75-.5,34.19,1.32,43.68-12.02,1.05.21,2.09.49,3.16.63,10.23,1.37,20.91.38,30.76-2.88,3.82-1.26,7.33-2.89,10.6-4.97,3.82,1.35,8.03,1.82,11.94,1.41,4.59-.48,9.17-1.19,13.74-1.79,4.89-.64,9.77-1.26,14.66-1.91,8.32-1.1,15.76-2.79,21.87-9.17,6.38-6.67,8.35-16.29,7.41-25.24ZM254.49,316.57c.03-.2.06-.39.09-.59,0,.32-.02.59-.05.85-.02-.09-.02-.17-.04-.26ZM796.29,406.97c.77-1.95,1.24-3.1,1.44-3.51h.07c-.06.2-.17.55-.37,1.13-.22.87-.64,1.65-1.15,2.38Z"/>
  <g>
    <path class="st0" d="M414.92,366.63l-1.19-.17c-1.47,0-3.72,1.07-6.77,3.22-6.66,4.85-14.1,7.27-22.33,7.27-6.2,0-11.28-1.58-15.23-4.74-2.03-2.03-3.05-3.95-3.05-5.75,0-2.03.79-3.38,2.37-4.06,1.02-.56,1.97-.85,2.88-.85s1.86.17,2.88.51c4.06,1.02,7.95,1.52,11.67,1.52,7.22,0,13.65-1.97,19.29-5.92,8.46-5.75,12.69-14.04,12.69-24.87l-.17-2.88c-1.13-9.81-5.73-17.09-13.79-21.82-8.06-4.74-17.74-7.11-29.02-7.11-12.29,0-22.78,2.88-31.47,8.63-8.69,5.75-15.31,13.34-19.88,22.76-4.57,9.42-6.85,19.6-6.85,30.54,0,15.23,4.51,28.42,13.53,39.59,9.02,11.17,22.22,16.97,39.59,17.43,17.93,0,31.13-6.49,39.59-19.46,6.32-9.58,9.47-18.27,9.47-26.05,0-4.17-1.41-6.77-4.23-7.78ZM362.05,338.12c-.28-1.52-.42-2.68-.42-3.47,0-1.8.34-3.66,1.02-5.58,1.13-3.27,2.71-5.86,4.74-7.78,2.03-1.92,4.12-2.88,6.26-2.88l1.69.17c2.48.79,3.78,2,3.89,3.64.11,1.64.17,2.62.17,2.96,0,2.37-.57,4.94-1.69,7.7-1.13,2.77-2.6,4.96-4.4,6.6-1.81,1.64-3.61,2.45-5.41,2.45-.68,0-1.35-.11-2.03-.34-2.26-.79-3.53-1.95-3.81-3.47Z"/>
    <path class="st0" d="M710.36,369.54c.48-8.68,2.19-17.82,4.93-25.75,8.97-25.94-3.22-41.65-14.12-45.4-3.01-1.07-6.21-1.55-9.62-1.44-9.88.34-18.74,5.11-26.56,14.32-2.32,2.9-4.41,4.39-6.28,4.45-1.98.07-3.19-1.6-3.64-4.99l-.39-1.93c-.63-2.21-1.86-3.82-3.71-4.81-1.85-1-4.64-1.43-8.37-1.3l-23.73.81c-6.24.21-10.04,1.8-11.46,4.71l-.02-.03s-.01.08-.02.12c-.35.75-.59,1.57-.62,2.5l-.13,2.8c-4.62,33.59-5.8,72.85,3.64,103.98.23,1.28.58,2.47,1.08,3.53,1.18,2.31,3.8,3.4,7.87,3.26l30.98-1.06c4.28-.15,6.81-1.11,7.57-2.91.76-1.79,1.11-3.8,1.03-6.03-.04-1.17-.19-2.46-.46-3.87-2.21-13.1-3.54-26.4-4-39.92-.35-10.34.39-19.19,2.23-26.54,1.65-6.52,4.11-10.14,7.38-10.84,2.31-.08,4.06,1.48,5.27,4.67,1.21,3.19,2.02,6.81,2.43,10.86.41,4.04.67,7.71.79,11,.57,16.8-.34,33.54-2.74,50.2-.18,1.3-.24,2.54-.2,3.71.07,2,.51,3.81,1.34,5.42,1.4,2.31,4.24,3.38,8.52,3.24l32.79-1.12c4.5-.15,7.16-1.1,7.99-2.83.82-1.73,1.2-3.54,1.13-5.42-.05-1.41-.26-2.93-.65-4.57-8.37-18.37-11.04-24.27-10.23-38.82Z"/>
    <path class="st0" d="M562.78,299.88c-15.62-1.38-23.35-.17-31.33,4.33-5.02,2.95-7.81,7.69-8.39,14.2l-.07.84c.07,4.31,1.09,7.51,3.06,9.61,1.96,2.1,3.92,3.4,5.85,3.91,1.94.51,3.47.81,4.59.91,1.12.1,21.12,1.18,21.47,10.53.03.9-.58,1.79-1.51,2.67-.93.88-2.01,1.27-3.24,1.16-1.69-.15-3.9-1.05-6.64-2.71-.75-.45-1.59-.86-2.52-1.22-27.49-12.73-51.74-3.76-58.28,17.24-6.74,21.64-1.61,51.25,35.6,53.01,7.32.42,12.56-.28,15.73-2.09,3.16-1.82,5.66-4.17,7.5-7.07,1.66-2.12,3.1-3.12,4.34-3.01,2.02.18,2.91,1.73,2.65,4.65-.45,5.06.88,8,3.98,8.84l3.02.44,28.65,2.53c4.16.37,10.18-.86,10.31-10.98.08-6.31-.46-10.39-.27-15.07.19-4.68-2.85-32.33.36-49.74,5.76-31.28-14.51-41.19-34.85-42.99ZM554.75,370.96l-.18,2.02c-.59,6.63-2.98,10.04-7.19,10.24-4.04-.36-6.34-1.92-6.89-4.68-.55-2.77-.75-4.99-.6-6.68.19-2.13.77-4.23,1.74-6.3,1.69-3.7,4.33-5.45,7.94-5.24,1.56.25,2.73,1.09,3.51,2.52.78,1.43,1.27,2.89,1.48,4.38.21,1.49.27,2.74.18,3.75Z"/>
    <path class="st0" d="M499.47,330.34c6.51-.8,11.54-3.25,15.1-7.38,3.56-4.12,5.44-10.36,5.64-18.72.01-3.21-.14-6.12-.46-8.76-1.6-13.05-7.53-20.82-17.79-23.3-2.83-.72-5.8-.89-8.9-.51-9.01,1.1-16.73,6.11-23.16,15.01-1.9,2.8-3.69,4.3-5.39,4.51-1.8.22-3.04-1.18-3.71-4.19l-.51-1.7c-.75-1.94-2-3.28-3.77-4.03-1.77-.74-4.36-.91-7.76-.49l-21.63,2.65c-7.21.88-10.71,3.39-10.51,7.53l.14,3.67c.19,1.58.55,3.25,1.07,5l.27.93c3.04,14.05,5.39,27.86,7.05,41.44,0,0,.47,38.49-1.41,49.14-1.88,10.65,8.56,17.12,29.86,11.27,21.3-5.85,20.86-13.45,18.7-22.6-.13-1.05-.37-2.2-.72-3.44-3.04-11.59-5.31-23.44-6.79-35.54-1.13-9.26-1.15-17.27-.04-24.03.99-6,2.96-9.44,5.9-10.34,3.3-.4,5.88,3.18,7.72,10.75,1.62,5.79,4.47,9.55,8.55,11.29,4.07,1.74,8.26,2.35,12.57,1.83Z"/>
    <path class="st0" d="M829.94,387.32c-.82-6.26-1.64-11.7-2.47-16.31-.83-4.61-1.66-10.11-2.49-16.48-.66-5.03-1.17-9.85-1.54-14.47-.37-4.61-.89-9.44-1.55-14.47-1.28-9.84-4.62-17.54-10-23.09-10.38-10.7-25.7-14.74-45.94-12.1-15.55,2.03-26.73,6.1-33.55,12.22-4.26,3.97-5.97,9.2-5.12,15.68l.11.84c1,4.19,2.69,7.1,5.06,8.72,2.37,1.63,4.56,2.48,6.56,2.56,2,.08,3.56.05,4.68-.1,1.12-.15,2.11-.39,2.98-.73,3.48-1.25,7-2.11,10.58-2.57l2.52-.33c4.49-.47,9.02.3,13.61,2.32,2.54,1.15,3.95,2.79,4.22,4.91.12.9-.18,1.87-.9,2.93-.72,1.06-1.69,1.67-2.92,1.83-1.68.22-4.03-.18-7.07-1.21-14.56-5.08-38.88-3.6-47.31,25.44-8.43,29.03,8.95,53.33,37.6,47.4,7.24-1.17,12.21-2.99,14.9-5.44,2.69-2.45,4.63-5.29,5.8-8.52,1.16-2.43,2.36-3.72,3.59-3.88,2.01-.26,3.21,1.06,3.59,3.97.66,5.03,2.58,7.63,5.79,7.78l3.04-.23,28.52-3.72c4.14-.54,6.57-1.94,7.3-4.19.73-2.25.86-5.17.39-8.75ZM775.69,374.25c-4.03.52-6.61-.5-7.74-3.09-1.13-2.58-1.81-4.71-2.03-6.39-.28-2.12-.16-4.3.34-6.53.85-3.98,3.05-6.25,6.62-6.83,1.58-.09,2.9.48,3.98,1.7,1.07,1.23,1.87,2.55,2.39,3.95.52,1.41.85,2.62.98,3.62l.26,2.01c.86,6.6-.74,10.45-4.81,11.55Z"/>
    <g>
      <path class="st0" d="M309.63,350.96c-.76,4.47-1.21,8.84-1.36,12.99.06.65.12,1.31.21,2,2.16,15.7-.72,28.87-8.64,39.53-6.77,9.21-16.27,14.11-28.51,14.69-11.38.43-20.88-2.31-28.51-8.21-8.64-6.34-13.47-13.97-14.47-22.9-1.44-13.1-7.2-26.57-17.28-40.39-11.67-15.69-19.3-29.45-22.9-41.26-3.46-10.8-4.61-20.95-3.46-30.46,1.3-9.79,5.69-18.65,13.18-26.57,5.9-6.48,11.45-10.29,16.63-11.45.14,0,2.38-.22,6.7-.65,11.52-.14,21.46,4.97,29.81,15.34,2.59,3.17,4.82,6.77,6.7,10.8,1.87,4.32,2.02,10.66.43,19.01-1.59,9.36-2.88,19.01-3.89,28.95-.29,2.74.36,5.98,1.94,9.72,2.16,4.75,5.62,6.84,10.37,6.26,1.44-.14,2.81-.65,4.1-1.51,1.3-.86,2.41-1.94,3.35-3.24.94-1.3,1.48-2.66,1.62-4.1.43-4.32.14-8.57-.86-12.74-3.89-16.42-5.26-31.68-4.1-45.79.72-9.07,5.54-15.69,14.47-19.87,11.52-5.62,24.26-5.47,38.23.43,6.77,2.88,11.77,7.81,15.01,14.8,3.24,6.99,3.71,14.37,1.4,22.14-.72,2.45-1.62,5.04-2.7,7.78-1.08,2.74-2.13,5.15-3.13,7.24-1.01,2.09-2.23,4.61-3.67,7.56-1.44,2.95-2.59,5.37-3.46,7.24-9.04,12.48-14.74,28.12-17.21,42.68Z"/>
      <g>
        <g id="_x39_eLtee">
          <path class="st0" d="M219.45,382.44c-2.33-1.15-4.73-2.33-7.35-2.62-5.33-.59-9.97,4.83-14.33,7.13-8.71,4.6-19.23-1.52-20.35-11.1-1.16-9.87,7.14-16.89,16.63-15.56,12.1,1.69,20.78,11.5,25.4,22.15Z"/>
        </g>
        <g id="_x39_eLtee1" data-name="_x39_eLtee">
          <path class="st0" d="M220.88,388.61c-1.41.99-2.85,2.02-3.85,3.45-2.03,2.92-.34,7.33-.38,10.6-.07,6.53-6.96,10.72-12.89,8.34s-7.58-9.5-3.81-14.6c4.81-6.51,13.26-8.47,20.92-7.79Z"/>
        </g>
      </g>
    </g>
  </g>
</svg>