<?xml version="1.0" encoding="UTF-8"?>
<svg id="Capa_1" xmlns="http://www.w3.org/2000/svg" version="1.1" viewBox="0 0 735.31 661.39">
  <!-- Generator: Adobe Illustrator 29.0.1, SVG Export Plug-In . SVG Version: 2.1.0 Build 192)  -->
  <defs>
    <style>
      .st0 {
        fill: #86e7ff;
      }

      .st1 {
        fill: #04006f;
      }
    </style>
  </defs>
  <path class="st0" d="M499.44,332.06c-8.08-10.32-19.59-15.86-31.76-19.49-1.36-3.81-2.8-7.58-4.54-11.21-1.28-2.68-2.9-5.2-4.35-7.8-.02-.18-.05-.35-.07-.53,1.4-.92,2.87-1.97,3.66-2.6,1.91-1.51,5.12-5.63,5.23-5.8,1.36-2.16,2.81-4.85,3.61-7.31.6-1.85,1.35-5.52,1.57-7.44.01-.11.02-.23.03-.34,2.11-1.72,3.97-3.7,5.72-6.29,4.27-6.31,5.97-14.39,4.61-21.88-1.95-10.74-9.88-19.7-20.17-23.18-.15-.05-.34-.1-.5-.15-.04-.08-.06-.16-.1-.23-1.28-2.39-2.77-4.75-4.57-6.79-3.31-3.74-4.74-4.52-8.14-6.23.78-2.29,1.35-4.68,1.64-7.16,1.52-13.08-7.89-26.21-19.95-30.49-2.2-.78-4.31-1.24-6.39-1.5,5.98-11.77,7.01-25.61-2.47-36.44-16.83-19.22-42.67-7.34-59.13,5.27-2.34-6.18-4.97-12.25-7.96-18.14-.91-1.79-1.85-3.57-2.83-5.33-1.91-3.42-3.9-7.68-6.76-10.22-.75-.66-1.48-1.3-2.22-1.92-2.67-2.5-5.88-4.57-9.56-6.07-13.31-5.43-27.78.52-35.99,11.49-4.51,6.02-5.64,13.7-7.07,20.82-1.55,7.73-2.56,15.6-3.16,23.46-4.69-1.56-9.52-2.81-14.52-3.76-13.24-2.51-29.02.17-36.85,12.42-7.5,11.73-6.75,27.11,2.56,37.73.22.25.48.48.71.73-4.98,1.68-9.72,4-13.69,7.52-14.42,12.8-13.85,36.49,2.36,47.61,4.91,3.37,10.19,4.77,15.78,6.22,3.48.9,6.82,2.2,10.08,3.68,4.64,2.55,9.07,5.41,13.29,8.59-3.38,5.55-6.26,11.47-8.66,17.46-2.22,5.54-3.87,11.3-5.2,17.12-1.02,4.47-2.06,8.99-2.85,13.53-3.18,4.81-5.04,10.45-5.19,16.79-.14,5.99.56,11.48,2.5,16.59-.07,2.06-.15,4.12-.12,6.18.04,2.93.2,5.86.41,8.79-3.94,3.69-7.64,7.62-10.87,12.11-8.17,11.35-11.37,24.45-10.19,38.21.86,9.99,6.03,20.47,13.29,27.37,3.81,3.62,7.56,6.48,11.8,8.88.57,2.88,1.44,5.7,2.52,8.47,3.84,9.8,12.86,17.32,22.53,21.02,9.69,3.71,19.75,3.49,29.12.58.63.47,1.27.91,1.91,1.36.08,4.4.24,8.81.53,13.2-2.95,1.85-5.79,3.91-8.44,6.26-6,5.34-11.13,12.24-13.53,19.97-3.78,12.19-1.68,26.64,7.5,35.99,12.2,12.42,29.14,13.29,45.09,9.32,10.42-2.59,21.37-5.56,30.93-10.53,9.39-4.88,17.21-12.52,20.2-22.92,2.76-9.57,1.69-18.26-1.86-27.39-.99-2.53-2.29-4.76-3.82-6.8-.05-.5-.11-.99-.15-1.49,3.02-.48,6.02-1.05,9-1.73,4.87-1.11,9.64-2.54,14.38-4.09,2.23,3.58,4.44,7.16,6.66,10.73.27,1.54.61,3.08,1.13,4.63.41,1.23.9,2.4,1.42,3.53,1.18,7.08,3.96,13.73,9.11,19.33,8.91,9.69,21.19,13.04,33.96,11.64,11.39-1.25,21.74-8.56,30.41-15.49,7.91-6.32,15.87-14.04,21.18-22.67,3.79-6.16,6.84-12.88,7.33-20.21.86-13.04-5.12-26.41-15.93-33.9-10.59-7.33-23.13-7.83-35.01-4.8.46-.89.93-1.78,1.37-2.68,8.48-1.28,17.31-5.28,23.68-11.02,10.18-9.17,15.35-22.49,13.49-36.11-.43-3.17-1.34-6.25-2.6-9.18,2.77-5.56,4.56-11.15,5.69-17.61,2.34-13.31-2.63-27.31-10.78-37.73ZM281.71,158.68c.04.06.08.12.12.18-.99-.89-1.95-1.81-2.96-2.68.95.84,1.89,1.67,2.84,2.51Z"/>
  <g>
    <path class="st1" d="M324.69,119.26c1,.64,4.9,8.21,5.72,9.84,10.63,21.08,16.86,44.29,20.98,67.5l4.65-10.03c7.66-14.67,23.68-33.41,39.83-38.75,2.99-.99,7.29-1.72,5.35,2.84-1.88,4.44-7.78,11.08-10.5,16.1-7.38,13.61-12.46,29.88-14.32,45.21,10.65-10.18,23.12-16.84,37.96-18.54,1.55-.18,7.04-.39,8.03.35,3.63,2.71-4.18,5.98-5.74,7.1-18,12.89-30.01,30.47-35.16,52.07,17.68,7.33,31.88,20.95,42.44,36.72,4.25-.31,5.91,2.12,7,5.93.63,2.18.09,4.45.31,5.37.59,2.42,5.43,9.94,6.86,13.1,3.21,7.14,5.57,14.66,8.33,21.98,14.87,2.94,34.75,7.71,36.18,26.07.61,7.76-3.92,15.21-8.63,20.93-.43.53-1.61.87-1.63,1.34-.03.91,1.31,3.63,1.53,5.28.14,1.08-.3,3.82-.16,3.95.06.06,1,.11,1.47.44,4.56,3.19,5.52,8.64,3.04,13.51-3.73,7.34-13.87,9.93-21.48,8.48-1.27-.24-5.22-1.93-5.79-1.39-.43.42-1.63,5.7-2.04,6.9-3.1,8.92-7.28,17.17-13.48,24.32l22.74,38.06c7.29-5.76,15.78-13.08,25.87-11.16,4.79.91,7.4,4.78,7.5,9.57.21,9.95-23.74,30.28-32.76,32.91-6.88,2.01-12.47-.58-13.98-7.87-.3-1.44.24-3.97-.02-4.63-.21-.53-1.3-.88-1.7-1.49-1.37-2.07-.66-3.68-.72-5.86-7.59-12.03-14.73-24.37-23.19-35.82-5.07,1.67-9.93,4.24-15.03,6.03-15.19,5.33-31.4,8.19-47.48,7.77.27,7.74-.18,15.5.3,23.23.16,2.66,1.1,15.41,1.86,16.85.32.6,2.41,1.95,3.29,3.28,2.73,4.14,3.56,9.8-.18,13.55-4.75,4.76-28.35,11.39-35.42,12.25-5.81.7-13.06.06-13.27-7.45-.3-10.74,17.65-18.88,26.23-21.39-3.35-14.97-3.07-30.28-3.11-45.48-10.18-4.82-18.44-11.66-25.69-20.24-6,5.7-12.62,9.92-21.27,8.16-5.7-1.16-10.64-5.94-9.48-12.14.16-.88,1.39-3.04,1.34-3.31s-2.69-2.83-3.38-4.73c-.38-1.04-1.01-4.75-1.21-4.9-.18-.14-3.57-.41-4.47-.66-15.66-4.38-21.77-18.57-13.9-32.95,4.69-8.57,12.3-14.05,19.6-20.18-.86-5.42-1.52-10.77-1.88-16.23-.29-4.35.6-14.27-.1-17.43-.29-1.29-1.39-1.57-1.83-2.54-.7-1.58-.67-6.82.01-8.46.66-1.59,2.76-1.56,3.26-2.94.6-1.64.62-5.86,1.01-7.98,3.32-18.18,8.27-34.09,20.71-48.17,1.01-1.14,5.18-4.42,4.96-5.67-.07-.37-2.45-3.77-2.93-4.4-10.55-13.97-28.5-26.67-45.08-32.23-2.17-.73-11.58-2.68-12.26-4-1.73-3.38,4.97-5.14,7.46-5.81,10.97-2.94,24.08-2.18,34.97.73l13.77,4.94c-8.12-16.36-19.1-30.38-31.86-43.3-1.69-1.71-7.1-5.97-8.01-7.35-4.33-6.57,8-4.28,11.13-3.65,14.07,2.87,28.51,11.33,38.74,21.26,2.93,2.84,5.4,6.07,8.35,8.87-3.75-21.65-4.25-44.51-.99-66.22.66-4.37,1.63-10.82,2.99-14.9.61-1.84,2.18-3.95,4.34-2.56ZM384.88,261.03c-18.56-9.69-41.32-9.12-60.06.04-10.1,4.94-18.83,12.78-25.92,21.4,2.29.65,4.02.65,6.22,1.84,5.3,2.87,8.07,11.72,15.46,9.73,7.57-2.04,7.03-12.9,11.3-18.34,4.64-5.9,12.99-7.36,19.34-3.35,4.56,2.88,6.9,9.19,12.58,10.19,13.55,2.39,7.98-20.5,21.08-21.52ZM418.45,291.66c-4.31-6.15-9.34-12.7-14.94-17.74-1.19-1.07-2.75-1.8-4.01-2.8-3.18-2.53-6.14-6.33-10.84-6.08-10.72.58-8.22,10.82-12.64,16.95-4.63,6.42-12.99,7.25-19.22,2.74-4.26-3.09-7.19-9.82-13.36-9.91-10.52-.15-9.72,14.18-15.18,20.07-5.15,5.55-13.37,5.54-18.83.49-2.62-2.43-4.22-6.42-7.93-7.47-6.04-1.71-7.87,2.8-9.93,7.31-4.59,10.05-7.32,22.19-8.26,33.17.5.31,10.6-3.12,11.28-3.57,1.25-.82,1.08-1.96,2.03-2.95,1.64-1.72,11.3-4.03,14.3-4.87,6.47-1.8,13.12-3.61,19.63-5.2,4.01-.98,11.58-3.11,15.32-3.39,2.98-.23,4.55.87,6.61,2.8,3.84-1.09,7.65-2.38,11.6-2.98.5-3.64,2.89-4.69,6.03-5.83,10.31-3.73,25.22-7.41,36.05-9.81,2.23-.49,6.04-1.46,8.15-1.52,1.95-.06,2.5,1.75,4.13.58ZM409.17,299.55c-.98.41-3.85.38-4.44.93-.26.24-1.6,5.63-1.99,6.72-1.92,5.4-5.79,13.76-6.87,18.97-.16.78-.2,1.43.06,2.2,1.25-.35,2.9-.13,3.76-1.19,2.16-5.98,4.67-11.86,6.74-17.87.44-1.27,3.31-9.37,2.74-9.76ZM423.05,298.82c-.27-.11-2.83.37-3.26.56-.35.16-.51,1.29-.88,1.84-.35.52-1.23.95-1.4,1.42-.4,1.07.83,4.95.97,6.56,2.26,27.02-36.52,38.34-49.65,14.15-1.7-3.14-1.53-7.05-5.95-6.91-1.93.06-6.83,1.51-7.75,3.36-.6,1.22.18,5.95.09,7.94-1.04,24.87-37.15,35.99-50.19,14.79-1.12-1.82-3.49-8.48-4.09-9.07-.47-.47-1.91-.26-2.72-.64-.69-.33-1.08-1.25-1.27-1.32-.82-.3-12.51,4.2-14.48,4.61.61,3.44-1.07,5.61-1.34,9.13-1.07,14.09,1.6,30.6,4.97,44.24,6.48,1.03,9.88,14.16,17.07,8.11,4.91-4.13,2.84-13.88,12.1-17.39,13.43-5.09,15.77,8.87,24.09,10.41,9.82,1.82,9.99-10.25,13.62-15.95,4.05-6.35,12.68-8.33,19.07-4.4,5.63,3.46,8.3,11.37,16.48,8.82,5.74-1.79,5.92-8.95,8.05-13.44,4.2-8.86,13.74-11.37,21.45-5.12,3.22,2.61,6.03,7.83,11,7.05,6.7-1.06,7.36-15.11,15.4-16.39-2.47-12.52-6.79-25.02-12.24-36.53-2.36-5-4.49-8.67-7.72-13-.45-.6-1.15-2.7-1.44-2.82ZM334.6,344.27c3.03-8.64,7.19-16.95,10.1-25.63.19-.56.96-2.02.14-2.29-.91-.31-3.57.23-4.26,1.07l-9.9,25.96-.03,1.75,3.96-.86ZM465.52,382.23c.38-.54,2.16-1.04,3.01-1.7,2.58-2.04,6.15-7.32,7.24-10.45,6.2-17.83-11.85-25.37-25.97-27.64,1.2,3.4,1.13,6.85,2.06,10.32,6.89,1.33,15.89,4.46,13.93,13.31-.38,1.7-4.47,8.31-5.8,8.68-.81.23-1.82-.33-2.69.1-.81.4-1.06,2.08-1.62,2.88-.46.66-1.47.75-1.67,1.31-.41,1.12.26,9.24.19,11.45-.07,2.39-.19,4.84-.38,7.22-.14,1.7-1.67,10.15-1.51,10.66.75,2.43,9.55,3.01,11.83,2.67,4.76-.71,11.69-4.51,10.06-10.16-1.93-6.68-3.55,4.15-7.26,3.17-3.73-.99.9-7.1,1.43-9.47.63-2.79.72-5.66-.94-8.12-.81-1.19-3.26-2.26-1.88-4.22ZM275.64,386.2c-14.03,8.83-24.57,31.08-3.2,38.7,1.77.63,8.42,1.65,8.99,2.42.88,1.18.4,4.26.94,6.16.87,3.02,3.65,4.99,6.18,6.57,1.53.96,6.2,1.89,4.41,4.55-1.65,2.45-5.48.21-7.42-.68-2.4,4.3,2.54,7.11,6.36,7.45,5.42.48,6.96-1.26,10.96-4,.68-.47,1.71-.52,2.5-1.06,1.58-1.08,3.9-6.43,3.94-8.35.05-2.47-1.03-3.37-1.29-5.17-.16-1.08.48-1.93.31-2.79-.82-4.27-7.06-10.11-11.24-11.25-3.67-1.01-7.11.77-8.02-4.15-1.82-.15-3.06,2.59-3.98,3.04-1.35.67-8-1.71-9.51-2.6-9.23-5.41-2.64-14.68,3.3-19.44-1.27-3.05-2.76-6.09-3.25-9.39ZM445.88,356.32c-5.05.62-5.86,7.34-8.27,10.74-3.42,4.84-9.53,6.59-14.94,4.04-5.91-2.77-8.66-11.82-16.99-8.36-5.64,2.34-5.78,11.46-8.99,15.95-3.99,5.58-10.96,7.31-17.17,4.37-5.75-2.72-8.69-11.24-16.08-10.01-8.25,1.37-7.7,10.45-11.22,16.05-3.35,5.33-9.73,7.82-15.76,5.8-7.37-2.47-11.68-15.05-20.63-9.6-5.93,3.61-3.91,13.33-11.15,17.25-6.43,3.49-12-.03-15.9-5.26.51,2.77,3.74,14.3,5.4,15.85.44.41,3.38.57,4.48.94,11.25,3.69,17.01,15.35,15.14,26.74,1.24.82,3.45-7.37,3.86-8.2,3.35-6.78,9.63-9.85,16.84-6.94,7.11,2.87,12.67,16.61,21.62,9,6.32-5.37,2.94-18.28,16.13-20.59,12.11-2.12,14.29,11.01,22.59,12.01,10.27,1.24,9.63-11.26,13.52-17.03,5-7.4,13.43-7.69,19.98-2.19,2.96,2.48,5.05,7.05,9.8,5.87,4.31-1.08,4.93-6.77,6.79-9.99.83-1.43,2.25-2.5,2.85-3.58.92-1.64,1.09-11.33,1.08-13.83-.02-9.72-1.19-19.46-3.01-29.01ZM453.45,371.29c10.24-4.16,9.67-11.38-1.39-13.34l1.39,13.34ZM283.22,398.82c-2.41,1.75-8.92,7.64-6.33,10.76.78.94,5.35,2.89,6.42,2.74.25-.03,3.73-2.41,3.73-2.71l-3.83-10.79ZM445.17,413.72c-2.91,3.09-6.37,4.68-10.66,3.83-7.1-1.4-9.79-12.11-18.23-9.04-5.47,1.99-5.56,9.74-7.68,14.08-3.69,7.55-11.87,10.9-19.51,6.79-5.84-3.14-8.6-12.24-16.75-10.41-6.91,1.56-6.83,9.73-9.48,14.74-3.77,7.12-11.4,10.16-18.72,6.22-6.13-3.3-10-13.9-18.57-9.45-5.62,2.92-3.98,11.86-9.42,15.31,10.65,13.8,27.72,21.92,45.12,22.3,18.73.4,49.58-7.37,64.16-19.53,10.26-8.56,17.13-21.85,19.74-34.84ZM484.69,478.54c-4.06-3.13-12.93,1.56-16.61,4.05-2.9,1.96-6.9,6.86-9.06,8.03-.73.4-1.44.68-2.29.43l-21.6-35.53c-.47-.49-.7-.26-1.19-.04-1.9.88-4.49,4.62-6.9,5.4,2.87,5.4,6.65,10.51,9.92,15.78,2.65,4.27,8.61,12.75,10.2,16.91,1.04,2.72-.49,2.41-.29,4.76.98-.03,3,.1,3.45,1.08.19.42-.95,4.77-.6,6.6.49,2.59,2.11,5.03,4.99,4.88,8.07-.44,27.31-18.23,30.58-25.68,1.02-2.33,1.85-4.77-.59-6.65ZM351.4,477.71c-3.31.08-6.56-1.09-9.74-1.89.03,9.97.18,20.05,1.5,29.96.34,2.51,2.35,9.16,1.69,10.99-.68,1.87-2.99,1.52-4.5,2.07-6.59,2.37-18.82,7.12-21.43,14.21-1.6,4.37,1.4,4.45,4.81,4.35,7.8-.23,24.13-5.42,31.31-9,4.51-2.25,5.76-4.82,2.35-9.29-.86-1.14-2.89-1.98-3.12-2.37-1.42-2.47-2.21-16.29-2.45-20.04-.4-6.31-.39-12.67-.43-18.99Z"/>
    <path class="st1" d="M446.5,253.6c-.85,1.16-1.49,3.49-1.69,4.96-.32,2.46.67,9.15-.43,10.34-3.11,3.33-5.23-5.93-6.39-8.08-1.99-3.7-3.74-5.39-8.02-6.17-1.69-.31-6.85.21-7.52-1.15-1.51-3.09,4.67-4.42,6.97-6.16,2.45-1.86,3.41-3.75,3.98-6.75.64-3.34-.2-6.92.24-9.68.2-1.24,1.35-1.86,2.53-1.71,1.34.17,3,6.09,3.81,7.75,2.21,4.5,4.44,6.66,9.49,7.49,1.77.29,5.1-.54,5.99,1.6.97,2.32-3.74,3.52-5.17,4.42-1.09.69-3.07,2.14-3.8,3.13ZM445.81,248.4c-1.07-1.19-2.76-.9-4.1-1.79-1.48-.98-2.88-3.23-3.94-4.65-.75,3.66-2.38,6.75-5.59,8.82,3.69.72,6.4,2.46,8.37,5.67.73-3.23,2.02-6.62,5.26-8.06Z"/>
    <path class="st1" d="M381.71,345.3c2.29,1.76-1.58,6.13-3.01,7.41-4.95,4.44-12.01,5.92-18.46,4.8-2.05-.35-8.78-2.04-6.86-5.03,1.5-2.33,5.1.42,7.33.84,5.45,1.02,10.05.01,14.43-3.41,1.74-1.36,4.4-6.27,6.57-4.61Z"/>
  </g>
</svg>